<svg width="512" height="512" viewBox="0 0 512 512" fill="none" xmlns="http://www.w3.org/2000/svg">
<path d="M42.2467 282.382V289.722C42.2467 291.277 40.5142 292.236 39.1348 291.42L35.6521 289.227L34.819 288.767C34.7596 288.734 29.9441 286.004 19.4807 280.072L18.6496 279.605C17.8302 279.141 17.158 278.478 16.6935 277.677C16.2341 276.883 15.995 275.981 16.004 275.085L16 256.805V238.496C16 237.524 16.28 236.575 16.8012 235.759C17.3168 234.941 18.0634 234.268 18.8394 233.9L33.9685 225.328L34.7945 224.854C35.0693 224.7 35.0693 224.7 35.6281 224.388L50.1189 216.186L50.9643 215.695C51.8463 215.196 52.8441 214.959 53.8555 215.006C54.8376 215.052 55.8058 215.368 56.4846 215.842L71.5632 224.385L72.3987 224.847C72.4591 224.881 77.4882 227.732 87.7267 233.536L88.5626 234.004C89.3816 234.469 90.0522 235.132 90.5165 235.932C90.9748 236.725 91.2139 237.626 91.2062 238.525L91.2094 255.171C91.2096 256.709 89.5102 257.67 88.1515 256.9L81.6456 253.213C81.0157 252.856 80.6277 252.197 80.6277 251.484V241.483L67.3815 233.973C67.267 233.917 67.0091 233.773 66.2927 233.366L53.6041 226.166L40.4026 233.641C40.2761 233.723 40.2761 233.723 40.2003 233.77C40.1698 233.788 39.8583 233.966 39.2659 234.303L26.5824 241.483V272.126L39.8349 279.639C39.9197 279.68 40.102 279.783 40.947 280.261L41.22 280.499L41.4463 280.795C41.9478 281.171 42.2467 281.756 42.2467 282.382ZM80.6277 263.516C80.6277 261.979 82.3242 261.018 83.6828 261.785L90.1887 265.459C90.8202 265.816 91.2094 266.476 91.2094 267.19V273.272C91.2094 273.793 91.0016 274.294 90.6294 274.668L87.5624 277.733C86.4121 279.174 84.7234 279.748 83.2167 278.897L59.0418 265.158L59.0357 291.081C59.1207 292.054 58.7109 293.005 57.932 293.621C57.1695 294.225 57.1696 294.225 53.4737 297.151C52.9198 297.655 52.1945 297.935 51.4356 297.935C49.7815 297.935 48.4408 296.62 48.4408 294.998L48.4447 259.151L44.3708 256.843L42.3112 258.004C42.213 258.071 42.2478 258.051 40.1689 259.228C38.7037 260.068 36.8588 259.623 36.016 258.198C35.8157 257.859 35.8157 257.859 34.8682 256.254L33.7307 254.331C32.8785 252.89 33.3335 251.085 34.7881 250.26C35.1438 250.06 35.1438 250.06 36.7886 249.134L41.7492 246.335L42.6436 245.84C43.5965 245.175 44.8596 245.115 45.8831 245.694L47.0128 246.339L80.6277 265.382V263.516ZM112.903 273.466C112.522 273.466 112.188 273.326 111.902 273.047C111.616 272.767 111.472 272.442 111.472 272.069V235.759C111.472 235.35 111.616 235.014 111.902 234.754C112.188 234.493 112.522 234.362 112.903 234.362H120.913C121.332 234.362 121.675 234.493 121.943 234.754C122.209 235.014 122.343 235.35 122.343 235.759V264.696H139.507C139.925 264.696 140.279 264.835 140.564 265.114C140.851 265.394 140.994 265.738 140.994 266.148V272.069C140.994 272.479 140.851 272.815 140.564 273.075C140.279 273.335 139.925 273.466 139.507 273.466H112.903ZM143.568 273.466C143.263 273.466 142.986 273.345 142.739 273.102C142.49 272.86 142.366 272.59 142.366 272.292C142.366 272.069 142.386 271.902 142.424 271.79L155.754 235.982C156.135 234.902 156.898 234.362 158.042 234.362H166.967C168.111 234.362 168.874 234.902 169.256 235.982L182.586 271.79C182.624 271.902 182.643 272.069 182.643 272.292C182.643 272.59 182.519 272.86 182.271 273.102C182.023 273.345 181.747 273.466 181.441 273.466H174.004C173.089 273.466 172.44 273.056 172.059 272.236L169.999 266.818H155.011L152.951 272.236C152.569 273.056 151.921 273.466 151.005 273.466H143.568ZM157.413 258.439H167.597L162.505 244.194L157.413 258.439ZM188.478 273.466C188.059 273.466 187.706 273.335 187.42 273.075C187.134 272.815 186.991 272.479 186.991 272.069V235.815C186.991 235.406 187.134 235.06 187.42 234.782C187.706 234.502 188.059 234.362 188.478 234.362H194.944C195.897 234.362 196.584 234.772 197.003 235.591L206.843 252.796L216.741 235.591C217.16 234.772 217.847 234.362 218.8 234.362H225.265C225.685 234.362 226.038 234.502 226.324 234.782C226.609 235.06 226.753 235.406 226.753 235.815V272.069C226.753 272.479 226.609 272.815 226.324 273.075C226.038 273.335 225.685 273.466 225.265 273.466H217.999C217.618 273.466 217.284 273.326 216.998 273.047C216.712 272.767 216.569 272.442 216.569 272.069V251.735L210.39 262.796C209.895 263.653 209.227 264.081 208.388 264.081H205.299C204.536 264.081 203.868 263.653 203.296 262.796L197.175 251.735V272.069C197.175 272.479 197.031 272.815 196.746 273.075C196.46 273.335 196.107 273.466 195.687 273.466H188.478ZM235.963 273.466C235.582 273.466 235.248 273.326 234.963 273.047C234.676 272.767 234.533 272.442 234.533 272.069V235.815C234.533 235.406 234.667 235.06 234.933 234.782C235.201 234.502 235.544 234.362 235.963 234.362H253.642C258.485 234.362 262.09 235.33 264.455 237.267C266.819 239.204 268.002 241.959 268.002 245.535C268.002 247.322 267.515 248.868 266.543 250.171C265.571 251.475 264.493 252.424 263.31 253.02C264.875 253.69 266.19 254.798 267.258 256.344C268.326 257.889 268.86 259.631 268.86 261.567C268.86 265.328 267.591 268.252 265.055 270.338C262.519 272.422 258.886 273.466 254.156 273.466H235.963ZM252.44 249.836C253.851 249.836 254.938 249.464 255.702 248.719C256.464 247.973 256.846 247.006 256.846 245.814C256.846 244.659 256.474 243.719 255.73 242.993C254.987 242.266 253.89 241.904 252.44 241.904H245.289V249.836H252.44ZM252.955 265.924C254.443 265.924 255.597 265.505 256.417 264.667C257.236 263.83 257.647 262.796 257.647 261.567C257.647 260.301 257.227 259.249 256.388 258.41C255.549 257.573 254.405 257.154 252.955 257.154H245.289V265.924H252.955ZM276.412 273.466C276.03 273.466 275.697 273.326 275.41 273.047C275.124 272.767 274.981 272.442 274.981 272.069V235.815C274.981 235.406 275.115 235.06 275.382 234.782C275.648 234.502 275.992 234.362 276.412 234.362H291.458C297.103 234.362 301.489 235.675 304.617 238.301C307.744 240.926 309.385 244.697 309.536 249.613C309.575 250.693 309.594 252.126 309.594 253.914C309.594 255.702 309.575 257.116 309.536 258.159C309.155 268.363 303.224 273.466 291.744 273.466H276.412ZM291.458 265.086C293.86 265.086 295.634 264.528 296.779 263.411C297.923 262.294 298.533 260.505 298.609 258.048C298.686 256.968 298.724 255.571 298.724 253.858C298.724 252.145 298.686 250.767 298.609 249.724C298.533 247.341 297.875 245.581 296.636 244.445C295.396 243.309 293.576 242.741 291.172 242.741H285.737V265.086H291.458ZM313.885 273.466C313.58 273.466 313.303 273.345 313.055 273.102C312.807 272.86 312.683 272.59 312.683 272.292C312.683 272.069 312.702 271.902 312.74 271.79L326.07 235.982C326.452 234.902 327.215 234.362 328.359 234.362H337.284C338.429 234.362 339.191 234.902 339.572 235.982L352.903 271.79C352.941 271.902 352.959 272.069 352.959 272.292C352.959 272.59 352.836 272.86 352.588 273.102C352.341 273.345 352.064 273.466 351.758 273.466H344.321C343.406 273.466 342.757 273.056 342.376 272.236L340.316 266.818H325.326L323.267 272.236C322.886 273.056 322.238 273.466 321.323 273.466H313.885ZM327.73 258.439H337.913L332.822 244.194L327.73 258.439ZM364.843 274.024C364.423 274.024 364.071 273.894 363.784 273.633C363.498 273.373 363.356 273.037 363.356 272.628V244.026H353.287C352.867 244.026 352.515 243.896 352.228 243.635C351.942 243.374 351.799 243.039 351.799 242.63V236.373C351.799 235.964 351.942 235.619 352.228 235.34C352.515 235.06 352.867 234.921 353.287 234.921H384.352C384.771 234.921 385.124 235.06 385.411 235.34C385.696 235.619 385.839 235.964 385.839 236.373V242.63C385.839 243.039 385.696 243.374 385.411 243.635C385.124 243.896 384.771 244.026 384.352 244.026H374.283V272.628C374.283 273.037 374.139 273.373 373.854 273.633C373.568 273.894 373.215 274.024 372.796 274.024H364.843ZM392.304 274.024C391.923 274.024 391.589 273.884 391.303 273.605C391.017 273.326 390.874 273 390.874 272.628V236.373C390.874 235.964 391.007 235.619 391.275 235.34C391.542 235.06 391.885 234.921 392.304 234.921H419.307C419.727 234.921 420.08 235.06 420.366 235.34C420.652 235.619 420.795 235.964 420.795 236.373V241.904C420.795 242.313 420.652 242.648 420.366 242.908C420.08 243.17 419.727 243.3 419.307 243.3H401.23V250.395H418.049C418.469 250.395 418.821 250.534 419.108 250.813C419.394 251.093 419.536 251.437 419.536 251.847V256.93C419.536 257.34 419.394 257.684 419.108 257.964C418.821 258.243 418.469 258.383 418.049 258.383H401.23V265.645H419.765C420.184 265.645 420.538 265.785 420.824 266.063C421.11 266.343 421.253 266.687 421.253 267.097V272.628C421.253 273.037 421.11 273.373 420.824 273.633C420.538 273.894 420.184 274.024 419.765 274.024H392.304ZM442.764 274.582C439.065 274.582 435.918 274.061 433.324 273.018C430.731 271.976 428.767 270.598 427.432 268.884C426.096 267.172 425.391 265.309 425.315 263.298C425.315 262.963 425.439 262.684 425.687 262.46C425.934 262.237 426.23 262.125 426.573 262.125H434.182C434.64 262.125 435.012 262.2 435.298 262.349C435.584 262.498 435.899 262.758 436.242 263.13C436.738 264.024 437.51 264.76 438.559 265.337C439.608 265.915 441.009 266.203 442.764 266.203C444.824 266.203 446.407 265.896 447.513 265.282C448.619 264.667 449.172 263.82 449.172 262.74C449.172 261.958 448.885 261.315 448.314 260.813C447.742 260.31 446.826 259.862 445.568 259.472C444.309 259.081 442.497 258.643 440.132 258.159C435.518 257.266 432.066 255.906 429.777 254.081C427.489 252.256 426.345 249.649 426.345 246.261C426.345 243.952 427.002 241.894 428.318 240.088C429.634 238.281 431.503 236.876 433.925 235.87C436.347 234.865 439.16 234.362 442.364 234.362C445.719 234.362 448.628 234.93 451.088 236.065C453.548 237.202 455.436 238.617 456.753 240.311C458.068 242.006 458.764 243.672 458.84 245.311C458.84 245.646 458.726 245.935 458.497 246.177C458.268 246.419 457.982 246.54 457.639 246.54H449.63C448.79 246.54 448.142 246.205 447.684 245.534C447.455 244.752 446.865 244.091 445.911 243.551C444.958 243.011 443.775 242.741 442.364 242.741C440.762 242.741 439.522 243.021 438.645 243.579C437.768 244.138 437.328 244.957 437.328 246.037C437.328 247.117 437.902 247.965 439.046 248.579C440.19 249.194 442.326 249.817 445.453 250.45C449.038 251.083 451.889 251.875 454.006 252.824C456.123 253.773 457.686 255.003 458.697 256.511C459.708 258.02 460.213 259.929 460.213 262.237C460.213 264.769 459.47 266.967 457.982 268.829C456.495 270.691 454.435 272.115 451.803 273.102C449.172 274.089 446.158 274.582 442.764 274.582ZM476.003 274.024C475.584 274.024 475.23 273.894 474.945 273.633C474.659 273.373 474.515 273.037 474.515 272.628V244.026H464.447C464.027 244.026 463.675 243.896 463.389 243.635C463.103 243.374 462.96 243.039 462.96 242.63V236.373C462.96 235.964 463.103 235.619 463.389 235.34C463.675 235.06 464.027 234.921 464.447 234.921H495.512C495.932 234.921 496.285 235.06 496.57 235.34C496.857 235.619 497 235.964 497 236.373V242.63C497 243.039 496.857 243.374 496.57 243.635C496.285 243.896 495.932 244.026 495.512 244.026H485.443V272.628C485.443 273.037 485.3 273.373 485.014 273.633C484.728 273.894 484.376 274.024 483.957 274.024H476.003Z" fill="black"/>
</svg>
