<svg width="277" height="49" viewBox="0 0 277 49" fill="none" xmlns="http://www.w3.org/2000/svg">
<g clip-path="url(#clip0_1124_53608)">
<path d="M15.0773 39.8515V44.1382C15.0773 45.0463 14.0821 45.6062 13.2897 45.1295L11.2891 43.8492L10.8105 43.5801C10.7763 43.5607 8.01012 41.9667 1.99945 38.5026L1.52205 38.2297C1.05136 37.9589 0.66522 37.5715 0.398371 37.1038C0.134466 36.6397 -0.00287105 36.1131 0.00229255 35.5898L0 24.9143V14.2216C0 13.654 0.160833 13.0997 0.460259 12.6233C0.756447 12.1454 1.18534 11.7526 1.63111 11.5378L10.3219 6.53169L10.7964 6.25482C10.9543 6.16467 10.9543 6.16467 11.2753 5.98242L19.5994 1.19239L20.085 0.90564C20.5917 0.614711 21.1649 0.476327 21.7459 0.503309C22.3101 0.530603 22.8663 0.714914 23.2562 0.991523L31.918 5.98063L32.398 6.25055C32.4327 6.27059 35.3216 7.93545 41.203 11.3248L41.6832 11.5986C42.1537 11.87 42.5389 12.257 42.8056 12.7246C43.0689 13.1874 43.2062 13.714 43.2018 14.2388L43.2036 23.9599C43.2036 24.8583 42.2276 25.4197 41.4471 24.97L37.7098 22.8168C37.348 22.6084 37.1251 22.2234 37.1251 21.8069V15.9659L29.5159 11.5803C29.4501 11.5478 29.3019 11.4635 28.8904 11.2259L21.6015 7.02104L14.018 11.3865C13.9453 11.4342 13.9453 11.4342 13.9017 11.4618C13.8842 11.4725 13.7053 11.5763 13.365 11.7731L6.079 15.9664V33.8622L13.6919 38.2494C13.7406 38.2737 13.8453 38.3334 14.3307 38.6127L14.4875 38.7514L14.6175 38.9246C14.9056 39.1439 15.0773 39.486 15.0773 39.8515ZM37.1251 28.8338C37.1251 27.9362 38.0996 27.3749 38.8801 27.8229L42.6173 29.9683C42.9801 30.1765 43.2036 30.562 43.2036 30.9792V34.5311C43.2036 34.8354 43.0843 35.1277 42.8705 35.3462L41.1087 37.1363C40.4479 37.9781 39.4779 38.313 38.6123 37.8161L24.7251 29.7925L24.7216 44.9316C24.7705 45.4997 24.5351 46.0554 24.0876 46.4148C23.6496 46.7677 23.6496 46.7677 21.5266 48.4769C21.2084 48.7707 20.7917 48.9346 20.3558 48.9346C19.4056 48.9346 18.6355 48.1665 18.6355 47.2194L18.6377 26.2845L16.2975 24.9364L15.1143 25.6144C15.0579 25.6538 15.0779 25.6422 13.8837 26.3293C13.042 26.82 11.9822 26.5603 11.4981 25.7281C11.383 25.53 11.383 25.53 10.8388 24.5928L10.1853 23.4696C9.69576 22.6279 9.95712 21.5736 10.7927 21.0921C10.9971 20.9751 10.9971 20.9751 11.9419 20.4345L14.7915 18.7997L15.3053 18.5107C15.8527 18.1224 16.5783 18.0871 17.1662 18.4253L17.8151 18.8021L37.1251 29.9235V28.8338Z" fill="#0EBAC5"/>
<path fill-rule="evenodd" clip-rule="evenodd" d="M55.6657 34.6442C55.4467 34.6442 55.2549 34.5625 55.0905 34.3997C54.9265 34.2365 54.8438 34.0461 54.8438 33.8288V12.6231C54.8438 12.3843 54.9265 12.1883 55.0905 12.0363C55.2549 11.8837 55.4467 11.8077 55.6657 11.8077H60.2668C60.5079 11.8077 60.7048 11.8837 60.8584 12.0363C61.0116 12.1883 61.0882 12.3843 61.0882 12.6231V29.5226H70.9479C71.1886 29.5226 71.3916 29.6038 71.5556 29.767C71.72 29.9303 71.8023 30.1314 71.8023 30.3707V33.8288C71.8023 34.0681 71.72 34.264 71.5556 34.4161C71.3916 34.5681 71.1886 34.6442 70.9479 34.6442H55.6657ZM73.2812 34.6442C73.1059 34.6442 72.9466 34.5737 72.8047 34.4319C72.6618 34.2906 72.5908 34.1329 72.5908 33.9589C72.5908 33.8288 72.6021 33.7308 72.6237 33.6655L80.2813 12.7537C80.5003 12.123 80.9383 11.8077 81.5957 11.8077H86.7227C87.3797 11.8077 87.8181 12.123 88.0371 12.7537L95.6947 33.6655C95.7168 33.7308 95.7276 33.8288 95.7276 33.9589C95.7276 34.1329 95.6562 34.2906 95.5138 34.4319C95.3714 34.5737 95.2126 34.6442 95.0373 34.6442H90.7646C90.2392 34.6442 89.8666 34.4049 89.6476 33.9263L88.4643 30.7621H79.8542L78.6709 33.9263C78.4519 34.4049 78.0792 34.6442 77.5533 34.6442H73.2812ZM81.2343 25.8686H87.0841L84.1592 17.5492L81.2343 25.8686ZM99.0797 34.6442C98.8386 34.6442 98.636 34.5681 98.4716 34.4161C98.3076 34.264 98.2253 34.0681 98.2253 33.8288V12.6558C98.2253 12.4169 98.3076 12.2154 98.4716 12.0526C98.636 11.8893 98.8386 11.8077 99.0797 11.8077H102.794C103.341 11.8077 103.736 12.047 103.976 12.5251L109.629 22.5733L115.315 12.5251C115.556 12.047 115.95 11.8077 116.498 11.8077H120.212C120.453 11.8077 120.655 11.8893 120.82 12.0526C120.984 12.2154 121.066 12.4169 121.066 12.6558V33.8288C121.066 34.0681 120.984 34.264 120.82 34.4161C120.655 34.5681 120.453 34.6442 120.212 34.6442H116.038C115.819 34.6442 115.627 34.5625 115.463 34.3997C115.299 34.2365 115.216 34.0461 115.216 33.8288V21.9533L111.667 28.4133C111.382 28.9134 110.999 29.1634 110.516 29.1634H108.742C108.304 29.1634 107.92 28.9134 107.592 28.4133L104.075 21.9533V33.8288C104.075 34.0681 103.993 34.264 103.829 34.4161C103.664 34.5681 103.462 34.6442 103.221 34.6442H99.0797ZM126.357 34.6442C126.138 34.6442 125.946 34.5625 125.782 34.3997C125.618 34.2365 125.536 34.0461 125.536 33.8288V12.6558C125.536 12.4169 125.612 12.2154 125.765 12.0526C125.919 11.8893 126.116 11.8077 126.357 11.8077H136.512C139.295 11.8077 141.365 12.3731 142.724 13.5043C144.082 14.6351 144.762 16.2445 144.762 18.3325C144.762 19.3765 144.482 20.2791 143.924 21.04C143.365 21.8013 142.746 22.3559 142.066 22.7039C142.965 23.0953 143.721 23.7423 144.334 24.645C144.948 25.5476 145.255 26.5646 145.255 27.6954C145.255 29.8916 144.526 31.5994 143.069 32.8174C141.612 34.0349 139.525 34.6442 136.808 34.6442H126.357ZM135.822 20.8445C136.633 20.8445 137.257 20.6271 137.696 20.1919C138.134 19.7566 138.353 19.1917 138.353 18.4957C138.353 17.8212 138.139 17.2721 137.712 16.8481C137.285 16.4236 136.655 16.2118 135.822 16.2118H131.714V20.8445H135.822ZM136.118 30.2401C136.972 30.2401 137.635 29.9951 138.106 29.5058C138.577 29.0169 138.813 28.4133 138.813 27.6954C138.813 26.956 138.572 26.3416 138.09 25.8518C137.608 25.3629 136.951 25.118 136.118 25.118H131.714V30.2401H136.118ZM149.592 34.6442C149.373 34.6442 149.182 34.5625 149.017 34.3997C148.853 34.2365 148.771 34.0461 148.771 33.8288V12.6558C148.771 12.4169 148.848 12.2154 149.001 12.0526C149.154 11.8893 149.351 11.8077 149.592 11.8077H158.236C161.479 11.8077 163.998 12.5741 165.795 14.1079C167.591 15.6408 168.534 17.8431 168.621 20.7139C168.643 21.3446 168.654 22.1819 168.654 23.2259C168.654 24.2699 168.643 25.0961 168.621 25.7053C168.402 31.6642 164.995 34.6442 158.4 34.6442H149.592ZM158.236 29.7507C159.616 29.7507 160.635 29.4246 161.292 28.772C161.949 28.1199 162.3 27.0754 162.344 25.64C162.388 25.0093 162.409 24.1939 162.409 23.1933C162.409 22.1927 162.388 21.388 162.344 20.7792C162.3 19.3872 161.922 18.3595 161.21 17.6962C160.498 17.0328 159.452 16.7011 158.072 16.7011H154.949V29.7507H158.236ZM171.119 34.6442C170.943 34.6442 170.785 34.5737 170.642 34.4319C170.499 34.2906 170.428 34.1329 170.428 33.9589C170.428 33.8288 170.439 33.7308 170.461 33.6655L178.118 12.7537C178.338 12.123 178.776 11.8077 179.433 11.8077H184.56C185.218 11.8077 185.656 12.123 185.875 12.7537L193.532 33.6655C193.554 33.7308 193.565 33.8288 193.565 33.9589C193.565 34.1329 193.494 34.2906 193.351 34.4319C193.209 34.5737 193.051 34.6442 192.875 34.6442H188.603C188.077 34.6442 187.704 34.4049 187.485 33.9263L186.302 30.7621H177.691L176.508 33.9263C176.289 34.4049 175.917 34.6442 175.391 34.6442H171.119ZM179.072 25.8686H184.922L181.997 17.5492L179.072 25.8686Z" fill="#0EBAC5"/>
<path fill-rule="evenodd" clip-rule="evenodd" d="M200.392 34.9703C200.15 34.9703 199.948 34.8942 199.783 34.7421C199.619 34.5901 199.537 34.3941 199.537 34.1548V17.4513H193.753C193.512 17.4513 193.31 17.3752 193.145 17.2231C192.981 17.0706 192.898 16.8751 192.898 16.6358V12.9818C192.898 12.743 192.981 12.5415 193.145 12.3787C193.31 12.2154 193.512 12.1338 193.753 12.1338H211.599C211.839 12.1338 212.042 12.2154 212.207 12.3787C212.371 12.5415 212.453 12.743 212.453 12.9818V16.6358C212.453 16.8751 212.371 17.0706 212.207 17.2231C212.042 17.3752 211.839 17.4513 211.599 17.4513H205.814V34.1548C205.814 34.3941 205.732 34.5901 205.568 34.7421C205.403 34.8942 205.201 34.9703 204.96 34.9703H200.392ZM216.166 34.9703C215.948 34.9703 215.756 34.8886 215.592 34.7258C215.427 34.5625 215.345 34.3722 215.345 34.1548V12.9818C215.345 12.743 215.421 12.5415 215.575 12.3787C215.729 12.2154 215.926 12.1338 216.166 12.1338H231.678C231.919 12.1338 232.122 12.2154 232.286 12.3787C232.451 12.5415 232.533 12.743 232.533 12.9818V16.2118C232.533 16.4511 232.451 16.6466 232.286 16.7986C232.122 16.9512 231.919 17.0272 231.678 17.0272H221.294V21.1706H230.956C231.197 21.1706 231.399 21.2522 231.564 21.415C231.728 21.5783 231.81 21.7793 231.81 22.0187V24.9874C231.81 25.2267 231.728 25.4278 231.564 25.591C231.399 25.7538 231.197 25.8359 230.956 25.8359H221.294V30.0768H231.942C232.182 30.0768 232.385 30.1584 232.55 30.3212C232.714 30.4845 232.796 30.6856 232.796 30.9249V34.1548C232.796 34.3941 232.714 34.5901 232.55 34.7421C232.385 34.8942 232.182 34.9703 231.942 34.9703H216.166ZM245.153 35.2963C243.028 35.2963 241.22 34.9922 239.73 34.3829C238.241 33.7742 237.112 32.9695 236.345 31.9684C235.578 30.9687 235.173 29.8809 235.13 28.7062C235.13 28.5108 235.201 28.3475 235.343 28.2169C235.485 28.0867 235.655 28.0214 235.852 28.0214H240.223C240.486 28.0214 240.7 28.0648 240.864 28.1521C241.029 28.2388 241.209 28.3909 241.407 28.6083C241.691 29.1303 242.135 29.5599 242.737 29.8972C243.34 30.2345 244.145 30.4029 245.153 30.4029C246.337 30.4029 247.245 30.2233 247.881 29.865C248.516 29.5058 248.834 29.0113 248.834 28.3802C248.834 27.9239 248.669 27.5484 248.341 27.255C248.012 26.9611 247.487 26.6999 246.764 26.4718C246.041 26.2436 245 25.988 243.641 25.7053C240.991 25.1833 239.007 24.3894 237.693 23.3234C236.378 22.258 235.721 20.7353 235.721 18.7565C235.721 17.4079 236.099 16.2062 236.855 15.1515C237.61 14.0963 238.684 13.2757 240.075 12.6884C241.467 12.1011 243.083 11.8077 244.923 11.8077C246.851 11.8077 248.522 12.1394 249.935 12.8022C251.348 13.466 252.433 14.2922 253.189 15.2816C253.944 16.2715 254.344 17.2446 254.388 18.2018C254.388 18.3973 254.322 18.5662 254.191 18.7075C254.059 18.8489 253.895 18.9193 253.698 18.9193H249.097C248.615 18.9193 248.242 18.7238 247.979 18.332C247.847 17.8753 247.509 17.4895 246.961 17.1742C246.413 16.8588 245.734 16.7011 244.923 16.7011C244.003 16.7011 243.29 16.8644 242.787 17.1905C242.283 17.5166 242.031 17.9952 242.031 18.6259C242.031 19.2566 242.36 19.7515 243.017 20.1102C243.674 20.4694 244.901 20.8333 246.698 21.2032C248.757 21.5727 250.395 22.035 251.611 22.5896C252.827 23.1438 253.725 23.8622 254.306 24.7425C254.887 25.6237 255.177 26.7386 255.177 28.0867C255.177 29.5655 254.749 30.8488 253.895 31.9362C253.041 33.0236 251.857 33.8553 250.346 34.4319C248.834 35.0085 247.103 35.2963 245.153 35.2963ZM264.247 34.9703C264.006 34.9703 263.803 34.8942 263.639 34.7421C263.475 34.5901 263.392 34.3941 263.392 34.1548V17.4513H257.609C257.367 17.4513 257.165 17.3752 257.001 17.2231C256.836 17.0706 256.755 16.8751 256.755 16.6358V12.9818C256.755 12.743 256.836 12.5415 257.001 12.3787C257.165 12.2154 257.367 12.1338 257.609 12.1338H275.454C275.695 12.1338 275.898 12.2154 276.062 12.3787C276.226 12.5415 276.309 12.743 276.309 12.9818V16.6358C276.309 16.8751 276.226 17.0706 276.062 17.2231C275.898 17.3752 275.695 17.4513 275.454 17.4513H269.67V34.1548C269.67 34.3941 269.588 34.5901 269.423 34.7421C269.259 34.8942 269.057 34.9703 268.816 34.9703H264.247Z" fill="#0EBAC5"/>
</g>
<defs>
<clipPath id="clip0_1124_53608">
<rect width="277" height="49" fill="white"/>
</clipPath>
</defs>
</svg>
